<?xml version="1.0" encoding="UTF-8"?>
<svg version="1.1" xmlns="http://www.w3.org/2000/svg" width="20" height="20">
<path d="M0 0 C1.093125 0.00257812 2.18625 0.00515625 3.3125 0.0078125 C4.405625 0.00523438 5.49875 0.00265625 6.625 0 C9.3125 0.1328125 9.3125 0.1328125 10.3125 1.1328125 C10.41231214 3.8101263 10.45129875 6.45585425 10.4375 9.1328125 C10.44136719 9.88304687 10.44523437 10.63328125 10.44921875 11.40625 C10.43911053 17.00620197 10.43911053 17.00620197 9.3125 18.1328125 C7.31450428 18.23155066 5.31292842 18.26253049 3.3125 18.2578125 C2.219375 18.26039062 1.12625 18.26296875 0 18.265625 C-2.6875 18.1328125 -2.6875 18.1328125 -3.6875 17.1328125 C-3.78731214 14.4554987 -3.82629875 11.80977075 -3.8125 9.1328125 C-3.81636719 8.38257813 -3.82023438 7.63234375 -3.82421875 6.859375 C-3.81217727 0.18839248 -3.81217727 0.18839248 0 0 Z M-0.6875 10.1328125 C-0.6875 10.4628125 -0.6875 10.7928125 -0.6875 11.1328125 C1.9525 11.1328125 4.5925 11.1328125 7.3125 11.1328125 C7.3125 10.8028125 7.3125 10.4728125 7.3125 10.1328125 C4.6725 10.1328125 2.0325 10.1328125 -0.6875 10.1328125 Z " fill="#235b79" transform="translate(6.6875,0.8671875)"/>
</svg>
